<?xml version="1.0" standalone="no"?>
<!DOCTYPE svg PUBLIC "-//W3C//DTD SVG 20010904//EN"
 "http://www.w3.org/TR/2001/REC-SVG-20010904/DTD/svg10.dtd">
<svg version="1.0" xmlns="http://www.w3.org/2000/svg"
 width="133.000000pt" height="133.000000pt" viewBox="0 0 133.000000 133.000000"
 preserveAspectRatio="xMidYMid meet">
<metadata>
Created by potrace 1.11, written by Peter Selinger 2001-2013
</metadata>
<g transform="translate(0.000000,133.000000) scale(0.100000,-0.100000)"
fill="#000000" stroke="none">
<path d="M0 665 l0 -665 665 0 665 0 0 665 0 665 -665 0 -665 0 0 -665z m336
-2 c27 -75 51 -141 52 -145 2 -4 -13 -8 -33 -8 -31 0 -37 4 -46 30 -10 28 -14
30 -60 30 -47 0 -50 -2 -55 -30 -6 -27 -10 -30 -45 -30 -38 0 -38 0 -28 28 6
15 29 76 50 136 22 59 42 112 45 117 3 5 20 9 38 9 l33 0 49 -137z m144 33 c0
-109 10 -136 48 -136 41 1 47 15 50 130 l4 110 35 0 35 0 -4 -120 c-3 -115 -4
-121 -30 -147 -23 -23 -36 -27 -82 -27 -63 0 -99 16 -115 51 -6 13 -11 73 -11
133 l0 110 35 0 35 0 0 -104z m430 74 c0 -28 -2 -30 -40 -30 l-40 0 0 -115 0
-115 -41 0 -40 0 1 98 c1 53 1 105 1 115 -1 13 -10 17 -41 17 -35 0 -40 3 -40
23 0 13 3 27 7 30 3 4 57 7 120 7 l113 0 0 -30z m230 11 c72 -38 91 -163 34
-231 -56 -66 -179 -58 -224 15 -25 40 -27 123 -5 166 34 64 125 88 195 50z"/>
<path d="M243 700 c-6 -14 -13 -37 -17 -52 -6 -26 -4 -28 24 -28 34 0 37 13
15 70 l-13 35 -9 -25z"/>
<path d="M1016 718 c-25 -36 -21 -104 9 -133 41 -42 88 -28 104 32 19 69 -9
123 -65 123 -23 0 -38 -7 -48 -22z"/>
</g>
</svg>
